<?xml version="1.0" encoding="utf-8"?>
<!-- Generator: Adobe Illustrator 19.2.0, SVG Export Plug-In . SVG Version: 6.00 Build 0)  -->
<svg version="1.1" id="Layer_1" xmlns="http://www.w3.org/2000/svg" xmlns:xlink="http://www.w3.org/1999/xlink" x="0px" y="0px"
	 viewBox="0 0 1000 199" style="enable-background:new 0 0 1000 199;" xml:space="preserve">
<style type="text/css">
	.st0{enable-background:new    ;}
	.st1{fill:#FFFFFF;}
	.st2{fill:#E32D35;}
</style>
<g id="_x3C_Type_x3E_">
</g>
<g id="Пиксель_Тулс_1_" class="st0">
	<g id="Пиксель_Тулс">
		<g>
			<path class="st1" d="M318.3,7.7c-0.8-1.3-2.7-2-5.9-2h-54.1c-3.2,0-5.4,0.7-6.4,2s-1.7,3.3-2.1,5.9l-10.3,72.7
				c-0.2,1.7,0.6,2.5,2.4,2.5h16.4c1.3,0,2-0.2,2.3-0.5c0.3-0.4,0.5-1,0.7-2L270,25h25.5l-8.7,61.3c-0.2,1.7,0.6,2.5,2.5,2.5h16.3
				c1.3,0,2.2-0.2,2.4-0.5c0.3-0.4,0.5-1,0.7-2L319,13.6C319.2,11,319.1,9,318.3,7.7z M378.6,26.5h-15.3c-1.3,0-2.2,0.2-2.5,0.5
				s-0.6,0.9-0.7,1.9L354,72.6c-1,0.2-2.2,0.3-3.4,0.4c-1.2,0.1-2.2,0.1-2.9,0.1c-2.1,0-3.7-0.3-4.9-0.8c-1.2-0.5-2.1-1.3-2.7-2.3
				s-0.8-2.2-0.8-3.7s0.1-3.3,0.4-5.3l4.5-32.1c0.2-1.6-0.6-2.4-2.4-2.4h-15.5c-1.3,0-2.1,0.2-2.4,0.5s-0.6,0.9-0.7,1.9L319.1,59
				c-0.9,5.8-1,10.7-0.3,14.7s2.1,7.2,4.4,9.7s5.4,4.3,9.4,5.3c4,1.1,9,1.6,14.9,1.6c1.3,0,2.8,0,4.6-0.1c1.8-0.1,3.6-0.2,5.5-0.3
				c1.8-0.1,3.5-0.3,5.1-0.5s2.8-0.4,3.6-0.5c2.8-0.6,4.6-1.7,5.6-3.3c1-1.5,1.6-3.6,2-6.1l7.1-50.6
				C381.1,27.3,380.4,26.5,378.6,26.5z M434.3,62.5c-0.3-1.1-0.7-2.2-1.4-3.1c-0.6-0.9-1.5-1.8-2.5-2.5s-2.4-1.3-4.2-1.7l0.1-0.4
				c2.6-0.9,4.7-2.4,6.3-4.3c1.6-1.9,2.9-4.1,3.7-6.5l6.5-15.5c0.2-0.4,0.2-0.8,0.1-1.3s-0.5-0.7-1.2-0.7h-17.1
				c-0.4,0-0.8,0.1-1.1,0.2c-0.4,0.2-0.7,0.6-1,1.3l-5.3,12c-1.4,3.2-2.9,5.3-4.5,6.3s-3.3,1.5-5.2,1.5h-3.1l2.7-19.4
				c0.2-0.9,0.1-1.4-0.2-1.6c-0.3-0.2-0.9-0.3-1.7-0.3h-16.6c-0.6,0-1.1,0.1-1.5,0.3c-0.4,0.2-0.6,0.7-0.8,1.6l-8.2,58.4
				c-0.2,0.9-0.1,1.4,0.3,1.6s0.8,0.3,1.5,0.3h16.6c0.8,0,1.3-0.1,1.7-0.3c0.3-0.2,0.6-0.7,0.7-1.6l3.2-22.8h4.7
				c2.3,0,4.2,0.4,5.6,1.2c1.4,0.8,2.3,2.4,2.7,4.7l2.7,17.3c0.2,0.6,0.4,1,0.8,1.2s0.7,0.2,0.9,0.2h16.8c0.9,0,1.4-0.3,1.5-0.8
				s0.2-1,0.2-1.4l-3.3-20.5C434.9,64.9,434.6,63.7,434.3,62.5z M488.7,69.7c-0.2-1.1-0.5-1.7-1-1.7s-1.2,0.1-2.1,0.4
				c-1.9,0.6-4,1.1-6.2,1.5c-2.3,0.5-4.6,0.7-6.9,0.7c-3.5,0-5.8-0.8-7-2.5s-1.8-4.1-1.8-7.2c0-5.2,0.9-9.3,2.8-12.4
				c1.9-3,4.9-4.6,9.1-4.6c1.2,0,2.7,0.1,4.4,0.4c1.8,0.3,3.8,0.6,6,1c1.2,0.2,2.1,0.4,2.8,0.5c0.7,0.1,1.3-0.5,1.7-1.7l3.8-12
				c0.4-1.2,0.5-2,0.3-2.5s-0.7-0.9-1.6-1.3c-2.5-1.1-5.5-2-8.8-2.7c-3.4-0.7-6.7-1-9.9-1c-4.8,0-9.2,0.8-13.2,2.3
				s-7.4,3.8-10.3,6.9c-2.8,3.1-5.1,7.1-6.6,12c-1.6,4.9-2.4,10.8-2.4,17.7c0,17.6,8.5,26.4,25.6,26.4c1.6,0,3.3-0.1,5.3-0.2
				c1.9-0.2,3.9-0.4,6-0.8s4.1-0.8,6.2-1.5c2.1-0.6,4.1-1.4,6-2.4c1.3-0.6,1.9-1.2,1.9-1.7s-0.1-1.2-0.2-2.1L488.7,69.7z
				 M515.4,64.1c1.6,0.2,3.2,0.3,4.7,0.4s3,0.1,4.5,0.1c9.3,0,16.4-1.8,21.3-5.4c4.9-3.6,7.4-8.9,7.4-15.9c0-3.6-0.7-6.5-2.1-8.9
				c-1.4-2.4-3.2-4.3-5.6-5.7c-2.3-1.4-5-2.4-8.1-3s-6.3-0.9-9.6-0.9c-10.9,0-19.4,3.5-25.4,10.5s-9.1,17.2-9.1,30.5
				c0,4,0.4,7.4,1.3,10.4s2.3,5.5,4.3,7.6s4.6,3.6,7.8,4.7c3.2,1.1,7.2,1.6,11.9,1.6c1.7,0,3.6-0.1,5.8-0.3c2.2-0.2,4.4-0.5,6.8-1
				c2.3-0.5,4.6-1.1,6.7-1.8c2.1-0.7,4-1.5,5.6-2.5c0.6-0.4,1.1-0.8,1.4-1.2c0.3-0.4,0.4-1,0.1-1.8l-4.5-11.1
				c-0.2-0.6-0.5-1-0.9-1.2s-1.1,0-2.2,0.4c-2.5,0.8-4.6,1.4-6.6,1.8c-1.9,0.4-3.9,0.7-5.9,0.7c-1.5,0-2.8-0.1-4-0.2s-2.2-0.4-3-0.8
				s-1.5-1-2-1.9s-0.7-2-0.7-3.4c0-0.3,0-0.6,0.1-0.8C515.4,64.7,515.4,64.4,515.4,64.1z M520.7,44c1.6-1.5,3.7-2.3,6.1-2.3
				c2,0,3.3,0.4,4,1.2s1.1,1.8,1.1,2.8c0,1.9-0.8,3.3-2.4,4.3c-1.6,1-4.7,1.5-9.3,1.5c-0.6,0-1,0-1.5,0c-0.4,0-0.9,0-1.4-0.1
				C518,48,519.1,45.6,520.7,44z M614.2,28.4c-0.8-1.2-2.7-1.8-5.8-1.8h-34.2c-3.2,0-5.3,0.6-6.5,1.7c-1.1,1.1-1.9,3-2.3,5.8
				l-2.1,13.5c-0.8,4.9-1.6,8.9-2.4,12c-0.8,3.1-1.7,5.6-2.8,7.6s-2.5,3.6-4,4.7c-1.6,1.2-3.5,2.3-5.8,3.3c-1.2,0.6-1.8,1.2-2,1.8
				c-0.1,0.6,0,1.4,0.3,2.5l3.7,10.6c0.2,0.9,0.6,1.5,1.1,1.9s1.4,0.4,2.6,0c5.2-1.7,9.5-3.7,12.7-6s5.8-5.2,7.8-8.7
				c1.9-3.4,3.5-7.5,4.6-12.3s2.2-10.5,3.3-17.1l0.7-4.4h9.6l-5.9,42.7c-0.2,0.9-0.1,1.5,0.1,2c0.2,0.4,0.9,0.7,2.1,0.7h15.5
				c1.2,0,1.9-0.2,2.3-0.5c0.3-0.3,0.6-1,0.7-2l7.4-51.9C615.2,31.6,615,29.6,614.2,28.4z M667.8,48c-1.8-1.9-4.2-3.3-7.1-4.3
				c-3-1-6.7-1.5-11.2-1.5c-3,0-6.2,0.3-9.6,0.9l2-14.2c0.2-0.9,0.1-1.6-0.1-1.9c-0.2-0.3-1-0.5-2.4-0.5h-15.3c-1.7,0-2.7,0.8-3,2.4
				l-7.2,51.7c-0.2,0.9-0.2,1.8,0,2.5s0.8,1.4,1.9,2c3.4,1.8,7.4,3.1,12.1,3.9c4.7,0.8,9.3,1.1,13.8,1.1c6.2,0,11.4-0.9,15.4-2.7
				c4-1.8,7.2-4.1,9.5-6.8c2.3-2.7,4-5.7,4.9-8.9c0.9-3.2,1.4-6.2,1.4-9.1s-0.4-5.5-1.1-8C670.9,52.1,669.6,49.9,667.8,48z
				 M650.3,66.7c-0.3,0.9-0.8,1.8-1.5,2.6c-0.7,0.8-1.6,1.4-2.8,2c-1.1,0.5-2.6,0.8-4.2,0.8c-0.6,0-1.4,0-2.4-0.1
				c-1,0-2.1-0.2-3.4-0.4l1.8-11.1c1.6-0.6,2.9-0.9,4-1.2c1.1-0.2,2.3-0.4,3.6-0.4c3.6,0,5.5,1.7,5.5,5
				C650.8,64.8,650.6,65.8,650.3,66.7z M765.2,21.9l1.9-13.3c0.2-1.3,0.1-2.2-0.2-2.4c-0.3-0.3-0.9-0.4-1.9-0.4h-60.6
				c-0.9,0-1.5,0.1-1.9,0.4s-0.7,1.1-0.8,2.4l-1.9,13.3c-0.3,1.8,0.4,2.7,2,2.7H721l-8.8,61.6c-0.2,1.7,0.6,2.5,2.4,2.5H731
				c1.3,0,2-0.2,2.3-0.5c0.3-0.4,0.5-1,0.7-2l8.8-61.6h19.7C763.9,24.6,764.9,23.7,765.2,21.9z M823.2,26.6h-18.4
				c-1.6,0-2.6,0.2-3.1,0.7c-0.5,0.4-1,1.3-1.6,2.5l-7.5,19l-8,20.2h-0.7l-2.1-19.7l-2-19.9c-0.2-1.3-0.5-2-1-2.3s-1.6-0.4-3.1-0.4
				h-16.3c-0.7,0-1.3,0.2-1.8,0.5c-0.5,0.4-0.6,1.1-0.3,2.2L767.8,80c0.4,2,0.9,3.4,1.5,4.1c0.6,0.8,1.9,1.2,4,1.2h3.6l-2.5,5.2
				c-0.7,1.5-1.4,2.7-2,3.6s-1.2,1.5-2,2c-0.7,0.5-1.5,0.8-2.4,0.9c-0.9,0.2-2,0.2-3.4,0.2c-0.8,0-1.6,0-2.4-0.1
				c-0.8-0.1-1.8-0.2-3-0.4c-1-0.2-1.8-0.2-2.2-0.2s-0.8,0.6-1,1.7l-2.7,11.4c-0.2,1.1-0.3,1.9-0.1,2.3s0.8,0.7,1.8,0.9
				c2.5,0.6,5,1.1,7.3,1.4s4.5,0.4,6.5,0.4c3.1,0,5.8-0.4,8-1.1c2.3-0.7,4.3-1.7,6-3s3.3-2.9,4.6-4.8s2.5-4,3.6-6.4l33.6-70.5
				C825.2,27.4,824.9,26.6,823.2,26.6z M878.4,28.4c-0.8-1.2-2.7-1.8-5.8-1.8h-34.2c-3.2,0-5.3,0.6-6.5,1.7c-1.1,1.1-1.9,3-2.3,5.8
				l-2.1,13.5c-0.8,4.9-1.6,8.9-2.4,12c-0.8,3.1-1.7,5.6-2.8,7.6s-2.5,3.6-4,4.7c-1.6,1.2-3.5,2.3-5.8,3.3c-1.2,0.6-1.8,1.2-2,1.8
				s0,1.4,0.3,2.5l3.7,10.6c0.2,0.9,0.6,1.5,1.1,1.9s1.4,0.4,2.6,0c5.2-1.7,9.5-3.7,12.7-6s5.8-5.2,7.8-8.7
				c1.9-3.4,3.5-7.5,4.6-12.3s2.2-10.5,3.3-17.1l0.7-4.4h9.6L851,86.2c-0.2,0.9-0.1,1.5,0.1,2c0.2,0.4,0.9,0.7,2.1,0.7h15.5
				c1.2,0,1.9-0.2,2.3-0.5c0.3-0.3,0.6-1,0.7-2l7.4-51.9C879.5,31.6,879.3,29.6,878.4,28.4z M912.5,44c1.2,0,2.7,0.1,4.4,0.4
				c1.8,0.3,3.8,0.6,6,1c1.2,0.2,2.1,0.4,2.8,0.5s1.3-0.5,1.7-1.7l3.8-12c0.4-1.2,0.5-2,0.3-2.5s-0.7-0.9-1.6-1.3
				c-2.5-1.1-5.5-2-8.8-2.7c-3.4-0.7-6.7-1-9.9-1c-4.8,0-9.2,0.8-13.2,2.3s-7.4,3.8-10.3,6.9c-2.8,3.1-5.1,7.1-6.6,12
				c-1.6,4.9-2.4,10.8-2.4,17.7c0,17.6,8.5,26.4,25.6,26.4c1.6,0,3.3-0.1,5.3-0.2c1.9-0.2,3.9-0.4,6-0.8s4.1-0.8,6.2-1.5
				c2.1-0.6,4.1-1.4,6-2.4c1.3-0.6,1.9-1.2,1.9-1.7s-0.1-1.2-0.2-2.1l-3.8-11.7c-0.2-1.1-0.5-1.7-1-1.7s-1.2,0.1-2.1,0.4
				c-1.9,0.6-4,1.1-6.2,1.5c-2.3,0.5-4.6,0.7-6.9,0.7c-3.5,0-5.8-0.8-7-2.5s-1.8-4.1-1.8-7.2c0-5.2,0.9-9.3,2.8-12.4
				C905.3,45.5,908.3,44,912.5,44z"/>
		</g>
	</g>
</g>
<g id="Инструменты_доя_профессионалов_1_" class="st0">
	<g id="Инструменты_доя_профессионалов">
		<g>
			<path class="st1" d="M231.5,131.1l-2.8,3.9h-0.2l1.2-3.6l4.7-22.2h-3.8l-7,32.7h2.4l19.5-21.7l2.8-3.9h0.2l-1.1,3.8l-4.6,21.8
				h3.8l6.9-32.7h-2.4L231.5,131.1z M270.2,128.3h-10.1l2-9.7h-3.5l-5,23.3h3.5l2.2-10.3h10.1l-2.2,10.3h3.5l5-23.3h-3.5
				L270.2,128.3z M291.7,118c-1.7,0-3.2,0.4-4.8,1.2c-1.6,0.7-2.9,1.9-4.1,3.4c-1.2,1.5-2.1,3.2-2.8,5.3c-0.7,2.1-1.1,4.5-1.1,7.1
				c0,0.7,0.1,1.6,0.4,2.5c0.2,0.8,0.6,1.7,1.2,2.4c0.6,0.7,1.3,1.4,2.3,1.8c1,0.5,2.2,0.7,3.8,0.7c0.6,0,1.2-0.1,1.7-0.2
				c0.6-0.1,1.3-0.3,1.9-0.6c0.6-0.2,1.3-0.5,1.8-0.8c0.6-0.3,1.1-0.6,1.7-1.1l-0.9-2.3c-0.6,0.5-1.5,0.8-2.5,1.3
				c-1,0.5-2,0.6-2.9,0.6c-1.5,0-2.6-0.5-3.4-1.5c-0.8-0.9-1.3-2.5-1.3-4.5c0-1.6,0.3-3.1,0.7-4.7c0.5-1.5,1.1-2.8,1.8-4
				c0.7-1.2,1.7-2.1,2.7-2.8c1-0.7,2-1.1,3.1-1.1c0.9,0,1.7,0.1,2.5,0.3c0.7,0.2,1.5,0.4,1.9,0.7l1.3-2.9c-0.6-0.3-1.3-0.6-2.1-0.7
				C293.8,118.1,292.9,118,291.7,118z M325.6,118c-0.8,0-1.7,0.2-2.4,0.5c-0.8,0.3-1.6,0.6-2.3,1.1s-1.4,1-2,1.6
				c-0.6,0.6-1.2,1.2-1.7,1.7c0-1.6-0.3-2.8-0.7-3.7c-0.5-0.8-1.5-1.3-2.8-1.3c-1,0-1.9,0.2-2.8,0.5s-1.6,0.6-2.3,1.1
				s-1.4,0.9-1.9,1.5c-0.6,0.6-1.1,1.1-1.7,1.6h-0.2l0.3-4h-2.5l-5,23.3h3.5l3.1-15c0.3-0.6,0.7-1.2,1.3-1.8
				c0.6-0.6,1.1-1.3,1.8-1.9c0.7-0.6,1.4-1.1,2.1-1.6c0.7-0.4,1.5-0.6,2.3-0.6c0.7,0,1.3,0.2,1.6,0.6c0.3,0.5,0.5,1.1,0.5,1.9
				c0,0.6-0.1,1.4-0.2,2.2c-0.1,0.8-0.3,1.8-0.6,2.9l-2.8,13.2h3.5l3-14.7c0.3-0.6,0.7-1.3,1.3-2c0.6-0.7,1.2-1.4,1.8-2
				c0.6-0.6,1.4-1.1,2.1-1.6s1.5-0.6,2.1-0.6c0.8,0,1.4,0.2,1.7,0.6c0.4,0.5,0.6,1.1,0.6,1.9c0,0.6-0.1,1.2-0.2,1.8
				c-0.1,0.7-0.3,1.6-0.5,2.4l-2.9,14h3.5l2.9-14c0.5-2.1,0.7-3.9,0.7-5.1c0-1.8-0.4-3-1.1-3.7C328.1,118.4,327,118,325.6,118z
				 M353.8,121.7c-0.3-0.9-0.7-1.7-1.2-2.2c-0.5-0.6-1.1-0.9-1.7-1.2c-0.6-0.3-1.4-0.4-2.1-0.4c-0.9,0-1.7,0.1-2.5,0.4
				s-1.5,0.6-2.1,1c-0.6,0.5-1.3,0.9-1.8,1.5c-0.6,0.6-1,1.1-1.5,1.7h-0.2l0.3-4h-2.4l-7,32.7h3.5l2-9.7c0.3,0.2,0.8,0.5,1.7,0.6
				c0.8,0.2,1.7,0.3,2.8,0.3c1.5,0,3-0.4,4.5-1.2c1.5-0.8,2.8-1.9,4-3.4c1.2-1.5,2.2-3.3,2.9-5.5c0.7-2.2,1.1-4.6,1.1-7.3
				C354.2,123.7,354,122.6,353.8,121.7z M349.6,131.1c-0.6,1.7-1.2,3.2-2.1,4.5c-0.8,1.3-1.8,2.2-2.9,2.8s-2.3,1-3.5,1
				c-0.6,0-1.3-0.1-1.8-0.3c-0.6-0.2-1.1-0.5-1.7-0.8l2.3-11c0.3-0.6,0.7-1.3,1.2-2c0.5-0.7,1.1-1.4,1.7-2s1.4-1.2,2.1-1.7
				c0.7-0.5,1.6-0.6,2.4-0.6c1,0,1.7,0.4,2.3,1.2c0.6,0.8,0.7,1.8,0.7,3.1C350.4,127.4,350.2,129.4,349.6,131.1z M373.6,118.5
				l-7.7,15.1l-1.7,4.5h-0.3l-0.3-4.5l-2.3-15.1h-3.8l4,23.3c-1.1,2.2-2.1,3.8-3,4.7c-0.9,0.9-1.8,1.4-2.7,1.4
				c-0.4,0-0.7-0.1-1.1-0.2l-1.1,3.2c0.3,0.2,0.6,0.3,1,0.4c0.4,0.1,0.8,0.1,1.4,0.1c1,0,1.9-0.4,2.8-1c0.9-0.6,1.7-1.6,2.6-2.8
				c0.8-1.1,1.7-2.4,2.5-3.9c0.8-1.5,1.6-2.9,2.4-4.5l11-20.8h-3.8V118.5z M391.5,128.9l-1.9,2.8h-0.1l-0.7-2.7l-3.9-10.5h-3.2
				l-5,23.3h3.3l2.9-13.9l0.6-4.4h0.2l0.7,3.6l3.7,9.2h1.2l7.3-9.2l2.4-3.6h0.2l-1.2,4.4l-2.9,13.9h3.5l5-23.3h-3.9L391.5,128.9z
				 M423.7,119.7c-0.6-0.6-1.2-0.9-2-1.2s-1.8-0.5-2.9-0.5c-1.6,0-3,0.4-4.6,1.1c-1.5,0.7-2.8,1.8-3.9,3.2c-1.2,1.4-2.1,3.1-2.8,5.1
				c-0.7,2-1.1,4.3-1.1,6.9c0,2.6,0.6,4.5,1.9,6s3.1,2.1,5.6,2.1c1.5,0,2.9-0.3,4.5-0.7c1.5-0.5,2.8-1.2,3.9-2.1l-1.1-2.2
				c-0.6,0.5-1.5,1-2.7,1.4c-1.1,0.5-2.4,0.6-3.8,0.6c-1.7,0-2.8-0.6-3.7-1.7c-0.7-1.1-1.2-2.5-1.2-4.1c0-0.4,0-0.8,0.1-1.4
				c0.1-0.6,0.2-1.1,0.3-1.7c0.5,0,0.8,0.1,1.3,0.1c0.4,0,0.8,0,1.2,0c4.1,0,7.3-0.6,9.4-1.9c2.1-1.3,3.2-3,3.2-5.2
				c0-0.7-0.1-1.5-0.4-2.1C424.6,120.8,424.2,120.2,423.7,119.7z M420.7,126.2c-0.6,0.6-1.6,1-2.6,1.3c-1,0.3-2.2,0.5-3.5,0.5
				c-1.3,0.1-2.5,0.1-3.7,0.1c0.6-2.3,1.7-4,2.8-5.2c1.3-1.2,2.8-1.7,4.5-1.7c0.6,0,1.3,0.1,1.7,0.3c0.5,0.2,0.8,0.4,1,0.6
				c0.3,0.3,0.5,0.6,0.6,0.9c0.1,0.4,0.2,0.6,0.2,0.9C421.7,124.8,421.3,125.6,420.7,126.2z M443.7,128.3h-10.1l2-9.7h-3.5l-5,23.3
				h3.5l2.2-10.3H443l-2.2,10.3h3.5l5-23.3h-3.5L443.7,128.3z M479.4,118c-0.8,0-1.7,0.2-2.4,0.5c-0.8,0.3-1.6,0.6-2.3,1.1
				s-1.4,1-2,1.6c-0.6,0.6-1.2,1.2-1.7,1.7c0-1.6-0.3-2.8-0.7-3.7c-0.5-0.8-1.5-1.3-2.8-1.3c-1,0-1.9,0.2-2.8,0.5s-1.6,0.6-2.3,1.1
				c-0.7,0.5-1.4,0.9-1.9,1.5c-0.6,0.6-1.1,1.1-1.7,1.6h-0.2l0.3-4h-2.5l-4.9,23.4h3.5l3.1-15c0.3-0.6,0.7-1.2,1.3-1.8
				s1.1-1.3,1.8-1.9s1.4-1.1,2.1-1.6c0.7-0.4,1.5-0.6,2.3-0.6c0.7,0,1.3,0.2,1.6,0.6c0.3,0.5,0.5,1.1,0.5,1.9c0,0.6-0.1,1.4-0.2,2.2
				c-0.1,0.8-0.3,1.8-0.6,2.9l-2.8,13.2h3.5l3-14.7c0.3-0.6,0.7-1.3,1.3-2c0.6-0.7,1.2-1.4,1.8-2c0.6-0.6,1.4-1.1,2.1-1.6
				c0.7-0.5,1.5-0.6,2.1-0.6c0.8,0,1.4,0.2,1.7,0.6s0.6,1.1,0.6,1.9c0,0.6-0.1,1.2-0.2,1.8c-0.1,0.7-0.3,1.6-0.5,2.4l-2.9,14h3.5
				l2.9-14c0.5-2.1,0.7-3.9,0.7-5.1c0-1.8-0.4-3-1.1-3.7C482,118.4,480.9,118,479.4,118z M498.4,127.2c-0.7,0-1.5,0.1-2.4,0.2
				c-0.8,0.1-1.6,0.3-2.1,0.5l2.2-9.2h-3.5l-4,18c-0.1,0.5-0.2,1-0.2,1.7c0,1.2,0.4,2.2,1.2,2.9c0.8,0.7,2,1.1,3.8,1.1
				c1.4,0,2.8-0.2,4-0.6c1.4-0.5,2.6-1.1,3.6-1.9c1.1-0.8,1.9-1.9,2.6-3.1c0.6-1.3,1-2.7,1-4.3c0-1.5-0.5-2.7-1.4-3.6
				C502.3,127.6,500.6,127.2,498.4,127.2z M500.3,135.5c-0.4,0.7-0.8,1.4-1.5,1.9c-0.6,0.6-1.4,1-2.2,1.3c-0.8,0.3-1.7,0.5-2.7,0.5
				c-0.7,0-1.3-0.2-1.7-0.6c-0.4-0.4-0.5-0.8-0.5-1.4c0-0.1,0-0.3,0-0.4s0-0.3,0.1-0.5l1.2-5.6c1.2-0.5,2.4-0.7,3.7-0.7
				c1.6,0,2.6,0.3,3.1,0.8c0.6,0.6,0.8,1.3,0.8,2.2C500.9,134,500.7,134.8,500.3,135.5z M506.3,141.9h3.5l5-23.3h-3.5L506.3,141.9z
				 M550,121.8c0-1.8-0.2-3.5-0.6-5c-0.4-1.6-1-2.9-2-4.1c-0.9-1.2-2.2-2.1-3.7-2.8c-1.6-0.6-3.4-1-5.7-1l-0.6,3
				c2.7,0,4.9,0.7,6.4,2.1c1.6,1.4,2.5,3.3,2.6,5.6h-0.3c-0.5-0.3-0.9-0.6-1.6-0.7c-0.6-0.2-1.5-0.3-2.5-0.3c-1.8,0-3.5,0.5-5,1.3
				c-1.5,0.8-2.7,2-3.8,3.5c-1,1.5-1.8,3-2.4,4.9c-0.6,1.8-0.8,3.8-0.8,5.7c0,2.8,0.6,4.9,1.7,6.4c1.2,1.6,3,2.3,5.6,2.3
				c1.7,0,3.4-0.5,4.9-1.4s2.8-2.3,3.9-4s2-3.9,2.7-6.5C549.6,127.9,550,125,550,121.8z M545.8,128.5c-0.3,1.9-0.7,3.7-1.5,5.3
				c-0.6,1.7-1.5,3-2.6,4c-1.1,1.1-2.4,1.7-3.9,1.7c-1.4,0-2.4-0.6-3-1.6c-0.6-1-0.9-2.3-0.9-3.9c0-1.8,0.2-3.6,0.6-5.1
				c0.5-1.6,1-2.9,1.7-4s1.6-2,2.5-2.6c0.9-0.6,1.9-0.9,2.9-0.9c1.1,0,1.9,0.2,2.7,0.5c0.6,0.3,1.3,0.7,1.8,1.4
				C546.2,124.7,546,126.5,545.8,128.5z M591.7,118.4c-0.6-0.1-1.2-0.2-1.7-0.3c-0.6-0.1-1.3-0.1-1.8-0.1c-1.5,0-2.8,0.2-4.2,0.6
				c-1.3,0.5-2.5,1-3.5,1.8c-1,0.7-1.7,1.7-2.4,2.8c-0.6,1.1-0.9,2.4-0.9,3.9c0,1.5,0.5,2.7,1.3,3.5c0.8,0.8,1.9,1.4,3.1,1.6
				l-2.3,1.7l-6.8,8h4.5l7.5-9.1l3.6-0.6l-2,9.6h3.5l4.8-22.8c-0.3-0.1-0.6-0.2-1.1-0.4C592.8,118.6,592.3,118.5,591.7,118.4z
				 M588.6,130c-0.6,0-1.1,0.1-1.5,0.1s-0.6,0-0.8,0c-0.2,0-0.3,0-0.4,0c-0.1,0-0.1,0-0.2,0c-3.2,0-4.9-1.1-4.9-3.4
				c0-1.7,0.6-3.1,1.7-4.1c1.2-1,2.7-1.6,4.6-1.6c0.9,0,1.7,0.1,2.1,0.2c0.6,0.1,0.8,0.3,1,0.5L588.6,130z M629.3,119.1
				c-0.9-0.7-2.1-1.1-3.7-1.1c-1.1,0-2,0.2-2.9,0.5c-0.8,0.3-1.7,0.6-2.4,1.1s-1.3,0.9-1.9,1.5c-0.6,0.6-1,1.1-1.5,1.6h-0.1l0.2-4
				h-2.4l-5,23.3h3.5l3.1-15c0.4-0.6,0.8-1.4,1.4-2.1s1.2-1.4,1.8-1.9c0.6-0.6,1.4-1,2.2-1.4c0.7-0.4,1.6-0.6,2.4-0.6
				c1.2,0,1.9,0.3,2.4,0.8c0.5,0.6,0.6,1.3,0.6,2.2c0,0.5-0.1,0.9-0.2,1.5c-0.1,0.6-0.2,1.1-0.4,1.7l-3.1,14.8h3.5l3.3-15.5
				c0.3-1.3,0.5-2.4,0.5-3.4C630.7,121.2,630.2,119.8,629.3,119.1z M653.6,119.6c-0.5-0.6-1.1-0.9-1.7-1.2s-1.4-0.4-2.1-0.4
				c-0.9,0-1.7,0.1-2.5,0.4c-0.7,0.3-1.5,0.6-2.1,1c-0.6,0.5-1.3,0.9-1.8,1.5c-0.6,0.6-1,1.1-1.5,1.7h-0.2l0.3-4h-2.4l-7,32.7h3.5
				l2-9.7c0.3,0.2,0.8,0.5,1.7,0.6c0.8,0.2,1.7,0.3,2.8,0.3c1.5,0,3-0.4,4.5-1.2c1.5-0.8,2.8-1.9,4-3.4c1.2-1.5,2.2-3.3,2.9-5.5
				c0.7-2.2,1.1-4.6,1.1-7.3c0-1.3-0.2-2.4-0.5-3.3C654.5,120.7,654.1,120.1,653.6,119.6z M650.8,131.1c-0.6,1.7-1.2,3.2-2.1,4.5
				c-0.8,1.3-1.8,2.2-2.9,2.8s-2.3,1-3.5,1c-0.6,0-1.3-0.1-1.8-0.3c-0.6-0.2-1.1-0.5-1.7-0.8l2.3-11c0.3-0.6,0.7-1.3,1.2-2
				c0.5-0.7,1.1-1.4,1.7-2s1.4-1.2,2.1-1.7c0.7-0.5,1.6-0.6,2.4-0.6c1,0,1.7,0.4,2.3,1.2c0.6,0.8,0.7,1.8,0.7,3.1
				C651.5,127.4,651.2,129.4,650.8,131.1z M676.5,120.4c-0.6-0.7-1.3-1.3-2.2-1.7c-0.9-0.5-2-0.6-3.3-0.6c-1.7,0-3.3,0.4-4.8,1.2
				c-1.5,0.8-2.8,1.9-3.9,3.4c-1.1,1.5-2,3.2-2.7,5.2s-0.9,4.3-0.9,6.7c0,1,0.1,1.9,0.4,2.8c0.3,0.9,0.7,1.7,1.3,2.5
				c0.6,0.7,1.4,1.4,2.3,1.8c0.9,0.5,2.1,0.6,3.5,0.6c1.7,0,3.2-0.5,4.7-1.3c1.5-0.8,2.7-2,3.8-3.5c1.1-1.5,1.9-3.2,2.5-5.2
				c0.6-2,0.9-4.2,0.9-6.5c0-1-0.1-2-0.4-2.9C677.6,121.9,677.2,121.1,676.5,120.4z M673.8,131.1c-0.5,1.6-1,3-1.7,4.2
				c-0.7,1.3-1.5,2.2-2.4,2.9c-0.9,0.7-1.9,1.1-2.9,1.1c-1.5,0-2.6-0.5-3.3-1.5c-0.6-1-1-2.4-1-4.2c0-1.7,0.2-3.3,0.6-4.9
				c0.5-1.6,1-2.9,1.7-4c0.7-1.2,1.6-2.1,2.5-2.8c0.9-0.7,1.9-1,2.9-1c1.7,0,2.8,0.5,3.3,1.4s0.8,2.2,0.8,3.8
				C674.4,127.9,674.2,129.6,673.8,131.1z M702.8,118.2c-0.4,0-0.8,0-1.2,0.1c-0.5,0-0.9,0.1-1.5,0.2l1.9-9.2h-3.4l-1.9,9.2
				c-0.6-0.1-1.3-0.2-2.1-0.2c-1.7,0-3.4,0.4-5,1.1c-1.6,0.7-2.9,1.8-4.1,3.3c-1.2,1.5-2.1,3.2-2.8,5.3c-0.6,2.1-1,4.4-1,7.1
				c0,2.2,0.6,4,1.9,5.4c1.3,1.4,3.2,2.1,5.8,2.1c0.5,0,0.8,0,1.2-0.1c0.4-0.1,0.7-0.2,1.2-0.3l-1.9,9.2h3.4l1.9-9.1
				c0.3,0.1,0.6,0.2,1.2,0.3s0.9,0.1,1.2,0.1c1.6,0,3-0.4,4.6-1c1.6-0.6,2.9-1.7,4.1-3.1c1.2-1.4,2.2-3.1,2.9-5.2
				c0.7-2.1,1.1-4.7,1.1-7.6c0-2.2-0.6-3.9-1.9-5.3C707.1,119,705.2,118.2,702.8,118.2z M692.3,139.2c-0.5,0.1-0.8,0.1-1.2,0.2
				c-0.4,0.1-0.7,0.1-1.1,0.1c-1.6,0-2.7-0.5-3.5-1.5c-0.7-0.9-1.2-2.2-1.2-3.8c0-2.1,0.3-3.9,0.8-5.5c0.6-1.7,1.2-3,2.1-4.1
				c0.8-1.1,1.7-1.9,2.8-2.6c1-0.6,2-0.8,2.9-0.8c0.5,0,0.8,0,1.1,0.1c0.3,0.1,0.6,0.1,1,0.2L692.3,139.2z M705.6,131.9
				c-0.6,1.7-1.3,3.1-2.1,4.2c-0.8,1.1-1.8,1.9-2.8,2.5c-1.1,0.6-2.1,0.8-3.1,0.8c-0.4,0-0.6,0-1-0.1c-0.4,0-0.6-0.1-0.9-0.2
				l3.8-17.8c0.5-0.1,0.8-0.2,1.1-0.2c0.3-0.1,0.6-0.1,1-0.1c3.4,0,5,1.6,5,4.7C706.5,128.2,706.2,130.2,705.6,131.9z M731.2,119.7
				c-0.6-0.6-1.2-0.9-2-1.2s-1.8-0.5-2.9-0.5c-1.6,0-3,0.4-4.6,1.1c-1.5,0.7-2.8,1.8-3.9,3.2c-1.2,1.4-2.1,3.1-2.8,5.1
				s-1.1,4.3-1.1,6.9c0,2.6,0.6,4.5,1.9,6c1.3,1.5,3.1,2.1,5.6,2.1c1.5,0,2.9-0.3,4.5-0.7c1.5-0.5,2.8-1.2,3.9-2.1l-1.1-2.2
				c-0.6,0.5-1.5,1-2.7,1.4c-1.1,0.5-2.4,0.6-3.8,0.6c-1.7,0-2.8-0.6-3.7-1.7c-0.7-1.1-1.2-2.5-1.2-4.1c0-0.4,0-0.8,0.1-1.4
				s0.2-1.1,0.3-1.7c0.5,0,0.8,0.1,1.3,0.1c0.4,0,0.8,0,1.2,0c4.1,0,7.3-0.6,9.4-1.9c2.1-1.3,3.2-3,3.2-5.2c0-0.7-0.1-1.5-0.4-2.1
				C732.1,120.8,731.7,120.2,731.2,119.7z M728,126.2c-0.6,0.6-1.6,1-2.6,1.3c-1,0.3-2.2,0.5-3.5,0.5c-1.3,0.1-2.5,0.1-3.7,0.1
				c0.6-2.3,1.7-4,2.8-5.2c1.3-1.2,2.8-1.7,4.5-1.7c0.6,0,1.3,0.1,1.7,0.3c0.5,0.2,0.8,0.4,1,0.6c0.3,0.3,0.5,0.6,0.6,0.9
				c0.1,0.4,0.2,0.6,0.2,0.9C729.1,124.8,728.8,125.6,728,126.2z M748.3,118c-1.7,0-3.2,0.4-4.8,1.2c-1.6,0.7-2.9,1.9-4.1,3.4
				c-1.2,1.5-2.1,3.2-2.8,5.3c-0.7,2.1-1.1,4.5-1.1,7.1c0,0.7,0.1,1.6,0.4,2.5c0.2,0.8,0.6,1.7,1.2,2.4s1.3,1.4,2.3,1.8
				c1,0.5,2.2,0.7,3.8,0.7c0.6,0,1.2-0.1,1.7-0.2c0.6-0.1,1.3-0.3,1.9-0.6c0.6-0.2,1.3-0.5,1.8-0.8c0.6-0.3,1.1-0.6,1.7-1.1
				l-0.9-2.3c-0.6,0.5-1.5,0.8-2.5,1.3c-1,0.5-2,0.6-2.9,0.6c-1.5,0-2.6-0.5-3.4-1.5c-0.8-0.9-1.3-2.5-1.3-4.5
				c0-1.6,0.3-3.1,0.7-4.7c0.5-1.5,1.1-2.8,1.8-4c0.7-1.2,1.7-2.1,2.7-2.8c1-0.7,2-1.1,3.1-1.1c0.9,0,1.7,0.1,2.5,0.3
				c0.7,0.2,1.5,0.4,1.9,0.7l1.3-2.9c-0.6-0.3-1.3-0.6-2.1-0.7C750.4,118.1,749.4,118,748.3,118z M766.5,118c-1.7,0-3.2,0.4-4.8,1.2
				c-1.6,0.7-2.9,1.9-4.1,3.4c-1.2,1.5-2.1,3.2-2.8,5.3c-0.7,2.1-1.1,4.5-1.1,7.1c0,0.7,0.1,1.6,0.4,2.5c0.2,0.8,0.6,1.7,1.2,2.4
				s1.3,1.4,2.3,1.8c1,0.5,2.2,0.7,3.8,0.7c0.6,0,1.2-0.1,1.7-0.2c0.6-0.1,1.3-0.3,1.9-0.6c0.6-0.2,1.3-0.5,1.8-0.8
				c0.6-0.3,1.1-0.6,1.7-1.1l-0.9-2.3c-0.6,0.5-1.5,0.8-2.5,1.3c-1,0.5-2,0.6-2.9,0.6c-1.5,0-2.6-0.5-3.4-1.5
				c-0.8-0.9-1.3-2.5-1.3-4.5c0-1.6,0.3-3.1,0.7-4.7c0.5-1.5,1.1-2.8,1.8-4c0.7-1.2,1.7-2.1,2.7-2.8c1-0.7,2-1.1,3.1-1.1
				c0.9,0,1.7,0.1,2.5,0.3c0.7,0.2,1.5,0.4,1.9,0.7l1.3-2.9c-0.6-0.3-1.3-0.6-2.1-0.7C768.7,118.1,767.7,118,766.5,118z
				 M787.5,133.4c-0.4,0.6-0.8,1.4-1.5,2.1c-0.6,0.7-1.2,1.4-1.9,1.9c-0.7,0.6-1.5,1.1-2.2,1.5c-0.7,0.4-1.6,0.6-2.3,0.6
				c-0.9,0-1.6-0.3-1.8-0.8c-0.4-0.6-0.6-1.3-0.6-2.2c0-0.7,0.1-1.5,0.3-2.3l3.3-15.5h-3.5l-3.2,15.1c-0.3,1.4-0.5,2.6-0.5,3.7
				c0,1,0.1,1.8,0.4,2.5c0.3,0.6,0.6,1.2,1,1.6c0.5,0.4,0.9,0.6,1.6,0.8c0.6,0.2,1.2,0.3,1.9,0.3c0.9,0,1.8-0.2,2.7-0.5
				s1.7-0.6,2.4-1.1c0.7-0.5,1.4-1,2-1.6c0.6-0.6,1.1-1.2,1.7-1.8h0.2v4.4h2.8v-0.6c0-0.6,0-1.3,0.1-2.1c0.1-0.8,0.2-1.7,0.3-2.5
				c0.1-0.8,0.2-1.7,0.4-2.4c0.1-0.7,0.3-1.4,0.4-1.9l2.9-13.9h-3.5L787.5,133.4z M814.9,120.4c-0.6-0.7-1.3-1.3-2.2-1.7
				s-2-0.6-3.3-0.6c-1.7,0-3.3,0.4-4.8,1.2c-1.5,0.8-2.8,1.9-3.9,3.4c-1.1,1.5-2,3.2-2.7,5.2c-0.6,2-0.9,4.3-0.9,6.7
				c0,1,0.1,1.9,0.4,2.8c0.3,0.9,0.7,1.7,1.3,2.5c0.6,0.7,1.4,1.4,2.3,1.8c0.9,0.5,2.1,0.6,3.5,0.6c1.7,0,3.2-0.5,4.7-1.3
				s2.7-2,3.8-3.5c1.1-1.5,1.9-3.2,2.5-5.2c0.6-2,0.9-4.2,0.9-6.5c0-1-0.1-2-0.4-2.9C815.9,121.9,815.5,121.1,814.9,120.4z
				 M812.1,131.1c-0.5,1.6-1,3-1.7,4.2c-0.7,1.3-1.5,2.2-2.4,2.9c-0.9,0.7-1.9,1.1-2.9,1.1c-1.5,0-2.6-0.5-3.3-1.5
				c-0.6-1-1-2.4-1-4.2c0-1.7,0.2-3.3,0.6-4.9c0.5-1.6,1-2.9,1.7-4c0.7-1.2,1.6-2.1,2.5-2.8s1.9-1,2.9-1c1.7,0,2.8,0.5,3.3,1.4
				s0.8,2.2,0.8,3.8C812.7,127.9,812.6,129.6,812.1,131.1z M836.1,128.3h-10.1l2-9.7h-3.5l-5,23.3h3.5l2.2-10.3h10.1l-2.2,10.3h3.5
				l5-23.3h-3.5L836.1,128.3z M861,118.3c-1.3-0.2-2.3-0.3-3.2-0.3c-2.4,0-4.4,0.6-6.1,1.6c-1.7,1.1-3,2.4-4.1,4s-1.8,3.5-2.4,5.5
				c-0.6,2-0.7,4-0.7,6.1c0,4.9,1.8,7.3,5.6,7.3c0.8,0,1.7-0.1,2.4-0.4c0.7-0.3,1.5-0.6,2.1-1c0.6-0.5,1.3-0.9,1.8-1.5
				s1-1.1,1.4-1.7h0.2l0.6,4h2.6c-0.1-0.4-0.1-0.7-0.1-1.1c0-0.4,0-0.8,0-1.3c0-1,0.1-2.1,0.2-3.3c0.1-1.2,0.3-2.4,0.6-3.5l2.9-13.6
				C863.4,118.7,862.3,118.5,861,118.3z M857.9,134.1c-0.3,0.6-0.6,1.1-1.1,1.7c-0.5,0.6-1,1.2-1.7,1.7c-0.6,0.6-1.3,1-1.9,1.3
				c-0.6,0.4-1.4,0.6-2.1,0.6c-1,0-1.7-0.4-2.2-1.2c-0.5-0.8-0.7-1.8-0.7-3c0-1.7,0.2-3.4,0.6-5.1c0.4-1.7,0.9-3.2,1.7-4.6
				c0.7-1.4,1.7-2.5,2.8-3.3c1.1-0.8,2.4-1.3,3.8-1.3c1.5,0,2.6,0.2,3.6,0.6L857.9,134.1z M908,120.4c-0.6-0.7-1.3-1.3-2.2-1.7
				c-0.9-0.5-2-0.6-3.3-0.6c-1.7,0-3.3,0.4-4.8,1.2c-1.5,0.8-2.8,1.9-3.9,3.4c-1.1,1.5-2,3.2-2.7,5.2c-0.6,2-0.9,4.3-0.9,6.7
				c0,1,0.1,1.9,0.4,2.8c0.3,0.9,0.7,1.7,1.3,2.5s1.4,1.4,2.3,1.8c0.9,0.5,2.1,0.6,3.5,0.6c1.7,0,3.2-0.5,4.7-1.3s2.7-2,3.8-3.5
				c1.1-1.5,1.9-3.2,2.5-5.2c0.6-2,0.9-4.2,0.9-6.5c0-1-0.1-2-0.4-2.9C909,121.9,908.7,121.1,908,120.4z M905.3,131.1
				c-0.5,1.6-1,3-1.7,4.2c-0.7,1.3-1.5,2.2-2.4,2.9c-0.9,0.7-1.9,1.1-2.9,1.1c-1.5,0-2.6-0.5-3.3-1.5c-0.6-1-1-2.4-1-4.2
				c0-1.7,0.2-3.3,0.6-4.9c0.5-1.6,1-2.9,1.7-4c0.7-1.2,1.6-2.1,2.5-2.8c0.9-0.7,1.9-1,2.9-1c1.7,0,2.8,0.5,3.3,1.4s0.8,2.2,0.8,3.8
				C905.9,127.9,905.7,129.6,905.3,131.1z M925.5,129.6l0.1-0.2c1.7-0.5,3.2-1.4,4.3-2.6c1.1-1.2,1.7-2.7,1.7-4.3
				c0-0.6-0.1-1.3-0.3-1.7c-0.2-0.6-0.6-1-1-1.4s-1.1-0.7-1.8-0.9c-0.7-0.2-1.7-0.4-2.9-0.4c-2.8,0-5.1,0.8-7.1,2.6
				c-1.9,1.7-3.2,4.3-4,7.8c-0.2,0.9-0.4,1.7-0.6,2.4c-0.1,0.6-0.2,1.3-0.3,1.7c-0.1,0.5-0.1,0.9-0.2,1.4c0,0.4-0.1,0.8-0.1,1.3
				c0,1.3,0.2,2.4,0.5,3.3c0.4,0.9,0.7,1.6,1.4,2.1c0.6,0.6,1.3,0.9,2,1.1c0.8,0.2,1.7,0.4,2.6,0.4c1.4,0,2.7-0.2,3.9-0.6
				c1.3-0.4,2.4-0.9,3.3-1.7c1-0.7,1.7-1.7,2.3-2.7c0.6-1.1,0.8-2.3,0.8-3.8c0-1.2-0.4-2.1-1.2-2.8
				C928.2,130.1,927,129.7,925.5,129.6z M918,127.7c0.6-2.1,1.4-3.7,2.4-4.8c1.1-1.1,2.5-1.7,4.3-1.7c1.3,0,2.1,0.2,2.5,0.6
				c0.5,0.5,0.6,1,0.6,1.9c0,0.7-0.2,1.4-0.6,1.9c-0.5,0.6-1,1-1.7,1.4c-0.6,0.4-1.3,0.7-2,0.9c-0.6,0.2-1.3,0.4-1.7,0.4l-4.2,0.5
				L918,127.7z M926,136.3c-0.4,0.6-0.7,1.2-1.3,1.7c-0.6,0.5-1.2,0.8-1.9,1c-0.7,0.2-1.5,0.4-2.3,0.4c-2.5,0-3.8-1.4-3.8-4
				c0-0.5,0-1,0.1-1.6c0.1-0.6,0.2-1.3,0.4-2.1c1-0.1,1.8-0.2,2.5-0.2c0.6,0,1.1-0.1,1.5-0.1c0.4,0,0.6-0.1,0.7-0.1s0.3,0,0.4,0
				c1.6,0,2.8,0.3,3.4,0.7c0.6,0.5,1,1.2,1,1.9C926.5,134.8,926.4,135.6,926,136.3z M871.6,129c-0.7,2.7-1.5,4.7-2.1,6.1
				c-0.6,1.5-1.3,2.5-1.9,2.9c-0.6,0.5-1.3,0.7-1.9,0.7c-0.4,0-0.7-0.1-1.1-0.2l-1.1,3c0.3,0.2,0.6,0.3,1,0.4
				c0.5,0.1,0.9,0.1,1.5,0.1c1.4,0,2.6-0.5,3.6-1.4s1.9-2.2,2.8-3.9c0.8-1.7,1.6-3.9,2.3-6.4c0.7-2.6,1.5-5.5,2.3-8.8h6.2l-4.3,20.4
				h3.5l5-23.3h-12.9C873.2,122.9,872.4,126.3,871.6,129z M556.8,129c-0.7,2.7-1.5,4.7-2.1,6.1c-0.6,1.5-1.3,2.5-1.9,2.9
				c-0.6,0.5-1.3,0.7-1.9,0.7c-0.4,0-0.7-0.1-1.1-0.2l-1.1,3c0.3,0.2,0.6,0.3,1,0.4c0.5,0.1,0.9,0.1,1.5,0.1c1.4,0,2.6-0.5,3.6-1.4
				s1.9-2.2,2.8-3.9c0.8-1.7,1.6-3.9,2.3-6.4c0.7-2.6,1.5-5.5,2.3-8.8h6.2l-4.3,20.4h3.5l5-23.3h-12.9
				C558.4,122.9,557.6,126.3,556.8,129z"/>
		</g>
	</g>
</g>
<g id="Shape_1_copy_1_" class="st0">
	<g id="Shape_1_copy">
		<g>
			<path class="st2" d="M101.5,4.2H66c-8.2,0-16.3,6.8-18.1,15l-8.3,36.5c-0.2,1.1,0.5,2.2,1.8,2.2h48.9c0.8,0,1.6-0.6,1.8-1.4
				l11.3-50C103.6,5.5,102.7,4.2,101.5,4.2z M82.7,87.6H33.9c-0.8,0-1.6,0.6-1.8,1.4L8.6,192.5c-0.1,0.6,0,1.1,0.4,1.5
				s0.8,0.7,1.4,0.7h32.9c9.5,0,19.3-7.8,21.4-17.4l19.8-87.6c0.1-0.5,0-1.1-0.4-1.5C83.8,87.8,83.3,87.6,82.7,87.6z M166.5,87.6
				l-48.9-0.1c-0.8,0-1.6,0.6-1.8,1.4l-11.5,50c-0.1,0.6,0,1.1,0.4,1.5s0.8,0.7,1.4,0.7l35-0.1c8.2,0,16.8-6.6,18.7-14.8l8.4-36.6
				c0.1-0.6,0-1.1-0.4-1.5C167.5,87.8,167,87.6,166.5,87.6z M173.2,4.2h-36.6c-0.8,0-1.6,0.6-1.8,1.4l-11.7,50.1
				c-0.1,0.5,0,1.1,0.4,1.5c0.3,0.4,0.8,0.7,1.4,0.7H174c0.8,0,1.6-0.6,1.8-1.4l8.7-37.4C186.4,11,181.3,4.2,173.2,4.2z"/>
		</g>
	</g>
</g>
</svg>
